<svg xmlns="http://www.w3.org/2000/svg" xmlns:xlink="http://www.w3.org/1999/xlink" xmlns:lucid="lucid" width="1154" height="461"><g transform="translate(-396 -746)" lucid:page-tab-id="0_0"><g class="lucid-layer" lucid:layer-id="xD7T_.zsBYxK" display="block"><path d="M592.66 803.3v-48.6h14.68v48.6z" stroke="#1a85ff" fill="#1a85ff"/><path d="M624.3 769.38h-48.6v-14.7h48.6z" stroke="#1a85ff" fill="#1a85ff"/><path d="M735.24 854.73l33.44-35.28 10.66 10.1-33.45 35.3z" stroke="#d41159" fill="#d41159"/><path d="M781.55 851.9l-35.28-33.46 10.1-10.66 35.28 33.45z" stroke="#d41159" fill="#d41159"/><path d="M960 870.73h580V1120H960z" stroke="#000" stroke-width="9" fill="#fff"/><path d="M1537.77 922l-51.25-51.27-.9 52.15z" stroke="#000" stroke-width="9" fill="#fff"/></g><g class="lucid-layer" lucid:layer-id="TkuV7gb5Q67o" display="block"><path d="M800 1000c0 110.46-89.54 200-200 200s-200-89.54-200-200 89.54-200 200-200 200 89.54 200 200z" stroke="#000"/><path d="M1492.92 864.27l51.26 51.25.9-52.14z" stroke="#fff" stroke-width="9" fill="#fff"/><path d="M1440 865.77h72.5l-36.26-37.5zM1545.02 904.23v72.5l37.5-36.25z" stroke="#fff" fill="#fff"/></g><g class="lucid-layer" lucid:layer-id="Av7T3DheO1So" display="block"><path d="M780 1000c0 99.4-80.6 180-180 180s-180-80.6-180-180 80.6-180 180-180 180 80.6 180 180z" stroke="#3a414a" fill="#fff"/><path d="M968.5 882.28a6 6 0 0 1 6-6h528a6 6 0 0 1 6 6v48a6 6 0 0 1-6 6h-528a6 6 0 0 1-6-6z" fill="none"/><use xlink:href="#a" transform="matrix(1,0,0,1,968.4875252701806,876.2841397238645) translate(0 50.88975694444445)"/><path d="M968.5 966a6 6 0 0 1 6-6H1614a6 6 0 0 1 6 6v48a6 6 0 0 1-6 6H974.5a6 6 0 0 1-6-6z" fill="none"/><use xlink:href="#b" transform="matrix(1,0,0,1,968.4875252701805,960) translate(0 50.88975694444445)"/><path d="M968.5 1036.52a6 6 0 0 1 6-6H1614a6 6 0 0 1 6 6v48a6 6 0 0 1-6 6H974.5a6 6 0 0 1-6-6z" fill="none"/><use xlink:href="#c" transform="matrix(1,0,0,1,968.4875252701805,1030.5150793879873) translate(0 50.88975694444445)"/><path d="M982 951.5h536" stroke="#000" stroke-width="4" stroke-linecap="round" fill="none"/><path d="M952.92 797.9a6 6 0 0 1 6-6h528a6 6 0 0 1 6 6v48a6 6 0 0 1-6 6h-528a6 6 0 0 1-6-6z" fill="none"/><use xlink:href="#d" transform="matrix(1,0,0,1,952.9246827242091,791.8866877553086) translate(0 50.88975694444445)"/></g><g class="lucid-layer" lucid:layer-id="Vw7TK7BUkVxc" display="block"><path d="M605.03 840h-10.06l5.03 60zM760 1005.03v-10.06l-60 5.03zM594.97 1160h10.06l-5.03-60zM440 994.97v10.06l60-5.03z" stroke="#000"/></g><g class="lucid-layer" lucid:layer-id="bG7T9HX692zC" display="block"><path d="M615.7 1000c0 8.58-7.03 15.53-15.7 15.53-8.67 0-15.7-6.95-15.7-15.53 0-8.58 7.03-15.53 15.7-15.53 8.67 0 15.7 6.95 15.7 15.53z" stroke="#000"/><path d="M589.58 992.5l-71.3-116.6 8.44-5.17 71.3 116.6z" stroke="#000"/><path d="M781.08 818.96l.04-.04 1.17-1.02 1.2-.98 1.1-.8m5.18-3.1l.67-.33 1.58-.72 1.66-.65 1.74-.6 1.83-.56 1-.25m5.94-1.1l1.38-.17 2.35-.18 2.46-.08 2.58.02h.27m6 .52l2.23.3 3.07.57 3.18.74.42.1m5.8 1.74l.4.13 3.4 1.27 3.46 1.45 1.14.53m5.4 2.7l.42.22 3.46 2 3.4 2.18.46.32m4.88 3.55l1.24.95 3.14 2.63 2.5 2.3m4.27 4.27l1.9 2.05 2.6 3.1 1.37 1.75m3.54 4.9l2 3.07 1.98 3.4.7 1.3m2.67 5.4l.14.27 1.5 3.6 1.37 3.65.3.9m1.74 5.8l.24.8.9 3.86.74 3.94.03.26m.78 6l.2 1.88.23 4.22.05 2.93m-.14 6.04l-.04.42-.14.94-.3 1.5-.64 2.66-.94 3.27m-1.73 5.8l-2.68 8.64m-1.8 5.78l-2.68 8.65m-1.8 5.77l-2.7 8.65m-1.78 5.76l-2.7 8.66m-1.8 5.77l-2.68 8.65m-1.8 5.77l-.97 3.14-1.33 5.6m-1.4 5.87l-1.7 7.02-.34 1.8m-1.16 5.93l-1.3 6.65-.34 2.26m-.9 5.97l-.53 3.4-.6 5.6m-.58 6l-.4 6.1-.1 2.95m-.05 6.04l.06 3.88.3 5.16m.67 6l.4 2.7.67 3.66.6 2.54m1.65 5.8l.2.65.36 1 2.67 6.8m2.33 5.58l3.18 7.02.62 1.2m2.76 5.37l1.22 2.35 3.23 5.54m3.15 5.14l3.66 5.62 1.4 1.9m3.56 4.88l.42.58 5.26 6.48m4.02 4.5l1.88 2.1 4.4 4.42m4.43 4.1l2.44 2.22 4.48 3.65m4.83 3.63l1.5 1.1 5.04 3.3 1 .6m5.27 2.98l2.8 1.45 3.98 1.83 1.43.56m5.7 2.02l1.9.55 2.72.66 3.92.75.28.04m6 .82l5.3.52 3.7.2m6.05.2l4.34.02 4.72-.2m6.03-.4l2.53-.23 5.9-.78.56-.1m5.93-1.12l3.67-.84 4.36-1.2.73-.24m5.7-2l1.07-.4 3.24-1.4 2.94-1.45.97-.52m5.17-3.12l1.28-.86 2.1-1.55 1.92-1.6 1.78-1.6h.02m4.12-4.4l.5-.6 1.34-1.76 1.24-1.8 1.16-1.85.85-1.5m2.55-5.46l.45-1.14.77-2.25.26-.9" stroke="#d41159" stroke-width="3" stroke-linejoin="round" fill="none"/><path d="M781.1 818.93L780 820" stroke="#d41159" stroke-width="3" fill="none"/><path d="M1059.76 1134.9l10.77 22.56-24.93-1.96z" stroke="#d41159" stroke-width="3" fill="#fff"/></g><defs><path fill="#1a85ff" d="M459-1143c-135 0-263 101-193 227 64 115 245 130 370 193 138 70 263 161 263 365 0 243-151 381-393 381-140 0-231-50-293-142V0H27v-426h186c7 168 106 264 272 264 122 0 210-54 207-180-4-159-134-192-254-238C246-653 43-718 43-979c0-230 156-341 385-348 123-4 209 59 254 139v-117h186v406H682c3-146-83-244-223-244" id="e"/><path fill="#1a85ff" d="M578-164c115 3 170-77 182-174l182 41C926-110 780 28 578 23c-229-6-367-136-367-365v-403H0v-187h211v-373h207v373h391v187H418v403c-2 112 57 175 160 178" id="f"/><path fill="#1a85ff" d="M326 23C130 20-4-74-4-268c0-191 160-267 324-308 108-27 240-23 356-12 15-135-81-182-205-182-130 0-246 39-336 92L51-840c114-65 250-114 420-114 234 0 410 92 410 329V0H676v-137C618-41 477 26 326 23zm350-431c-126-19-319-13-398 30-51 28-77 60-77 99 0 78 59 117 178 117 126 0 223-46 273-125 22-35 26-70 24-121" id="g"/><path fill="#1a85ff" d="M418-698c61-193 232-282 477-247 32 5 62 17 92 32l-78 202c-49-23-94-37-164-37-208 0-327 116-327 330v232h209V0H0v-186h211v-559H0v-187h418v234" id="h"/><path d="M641-187L367 372H209l186-559h246" id="i"/><path fill="#d41159" d="M459-1143c-135 0-263 101-193 227 64 115 245 130 370 193 138 70 263 161 263 365 0 243-151 381-393 381-140 0-231-50-293-142V0H27v-426h186c7 168 106 264 272 264 122 0 210-54 207-180-4-159-134-192-254-238C246-653 43-718 43-979c0-230 156-341 385-348 123-4 209 59 254 139v-117h186v406H682c3-146-83-244-223-244" id="j"/><path fill="#d41159" d="M578-164c115 3 170-77 182-174l182 41C926-110 780 28 578 23c-229-6-367-136-367-365v-403H0v-187h211v-373h207v373h391v187H418v403c-2 112 57 175 160 178" id="k"/><path fill="#d41159" d="M922-662c46 116 46 280 0 395C852-94 704 23 467 23 232 23 83-95 14-267c-46-115-46-279 0-395 69-174 216-292 453-292 239 0 386 118 455 292zM467-164c183 0 283-118 283-301S649-768 467-768c-183 0-281 120-281 303 0 182 98 301 281 301" id="l"/><path fill="#d41159" d="M514 23C393 23 328-24 256-86v459H49V-932h207v84c72-62 136-106 258-106 210 0 327 129 386 292 43 117 43 277 0 394C840-105 725 23 514 23zm-53-791c-81 1-165 36-205 84v434c40 48 124 85 205 86 161 2 264-133 264-301S622-770 461-768" id="m"/><path d="M995-1305L793 0H580L465-563 352 0H139L-63-1305h215l120 879 95-506h198l92 506 123-879h215" id="n"/><path d="M578-954c212 0 305 146 305 379V0H676v-575c0-133-42-193-160-193-172 0-260 158-260 350V0H49v-1305h207v607c36-148 146-256 322-256" id="o"/><path d="M326 23C130 20-4-74-4-268c0-191 160-267 324-308 108-27 240-23 356-12 15-135-81-182-205-182-130 0-246 39-336 92L51-840c114-65 250-114 420-114 234 0 410 92 410 329V0H676v-137C618-41 477 26 326 23zm350-431c-126-19-319-13-398 30-51 28-77 60-77 99 0 78 59 117 178 117 126 0 223-46 273-125 22-35 26-70 24-121" id="p"/><path d="M578-164c115 3 170-77 182-174l182 41C926-110 780 28 578 23c-229-6-367-136-367-365v-403H0v-187h211v-373h207v373h391v187H418v403c-2 112 57 175 160 178" id="q"/><g id="a"><use transform="matrix(0.030381944444444448,0,0,0.030381944444444448,0,0)" xlink:href="#e"/><use transform="matrix(0.030381944444444448,0,0,0.030381944444444448,33.96701388888889,0)" xlink:href="#f"/><use transform="matrix(0.030381944444444448,0,0,0.030381944444444448,67.93402777777779,0)" xlink:href="#g"/><use transform="matrix(0.030381944444444448,0,0,0.030381944444444448,101.90104166666669,0)" xlink:href="#h"/><use transform="matrix(0.030381944444444448,0,0,0.030381944444444448,135.86805555555557,0)" xlink:href="#f"/><use transform="matrix(0.030381944444444448,0,0,0.030381944444444448,169.83506944444446,0)" xlink:href="#i"/><use transform="matrix(0.030381944444444448,0,0,0.030381944444444448,203.80208333333334,0)" xlink:href="#j"/><use transform="matrix(0.030381944444444448,0,0,0.030381944444444448,237.76909722222223,0)" xlink:href="#k"/><use transform="matrix(0.030381944444444448,0,0,0.030381944444444448,271.73611111111114,0)" xlink:href="#l"/><use transform="matrix(0.030381944444444448,0,0,0.030381944444444448,305.70312500000006,0)" xlink:href="#m"/><use transform="matrix(0.030381944444444448,0,0,0.030381944444444448,339.67013888888897,0)" xlink:href="#i"/><use transform="matrix(0.030381944444444448,0,0,0.030381944444444448,373.6371527777779,0)" xlink:href="#n"/><use transform="matrix(0.030381944444444448,0,0,0.030381944444444448,407.6041666666668,0)" xlink:href="#o"/><use transform="matrix(0.030381944444444448,0,0,0.030381944444444448,441.5711805555557,0)" xlink:href="#p"/><use transform="matrix(0.030381944444444448,0,0,0.030381944444444448,475.5381944444446,0)" xlink:href="#q"/></g><path fill="#1a85ff" d="M80-184c-146-213-148-717 2-937 78-115 197-211 385-206 370 10 500 300 500 674 0 285-85 509-267 619-120 72-347 74-466 0-63-39-112-89-154-150zm618-805c-44-83-108-152-231-152-95 0-166 45-218 129-70 113-90 349-63 537zM240-307c45 81 105 147 227 143 244-7 293-242 293-489 0-56-4-111-12-164" id="r"/><path fill="#1a85ff" d="M745-623c-41 140-158 242-344 236-202-7-321-130-383-284-46-113-44-274 2-384 68-161 207-272 426-272 382 0 494 295 494 674 0 294-108 514-303 621C524 30 347 41 212-7 154-27 103-56 59-94l113-152c61 54 122 82 225 82 253 0 341-201 348-459zm-301-518c-154 0-254 116-254 281 0 161 96 289 263 289 161 0 274-117 270-279-4-181-93-291-279-291" id="s"/><path fill="#1a85ff" d="M592-680H340v-252h252v252zm0 680H340v-252h252V0" id="t"/><path fill="#d41159" d="M778 0H152v-186h210v-742C316-790 178-730 0-725v-207c226-12 355-139 362-373h207v1119h209V0" id="u"/><path fill="#d41159" d="M592-680H340v-252h252v252zm0 680H340v-252h252V0" id="v"/><path fill="#d41159" d="M639-678c175 23 281 136 281 324C920-163 801-57 656-4 487 58 272 5 176-81 94-155 36-262 27-410l194-32c9 160 111 278 275 278 123 0 221-72 217-190-7-189-123-212-342-217v-187c132 0 239-36 293-114 16-24 24-53 24-86 0-113-73-185-192-183-174 3-256 94-254 279H45c6-297 157-465 451-465 185 0 308 85 368 215 20 45 31 97 31 154 0 167-98 264-256 280" id="w"/><path fill="#d41159" d="M80-184c-146-213-148-717 2-937 78-115 197-211 385-206 370 10 500 300 500 674 0 285-85 509-267 619-120 72-347 74-466 0-63-39-112-89-154-150zm618-805c-44-83-108-152-231-152-95 0-166 45-218 129-70 113-90 349-63 537zM240-307c45 81 105 147 227 143 244-7 293-242 293-489 0-56-4-111-12-164" id="x"/><path d="M930-829H745v-289H569v932h207V0H156v-186h206v-932H184v289H0v-476h930v476" id="y"/><path d="M774-684c-106-70-223-96-390-80-70 7-153 25-153 94 0 25 22 44 65 60 115 44 401 56 503 128 62 44 111 101 108 203C901-44 697 19 461 23 283 26 101-38-10-111l86-170c125 71 220 117 385 117 83 0 144-9 182-26 51-23 75-70 41-112-138-86-415-63-551-158C72-503 20-561 25-664c11-218 210-290 436-290 155 0 300 44 395 110" id="z"/><path d="M930 0H662L350-377l-94 96V0H49v-1305h207v768l373-395h284L483-504" id="A"/><path d="M778 0H152v-186h210v-742C316-790 178-730 0-725v-207c226-12 355-139 362-373h207v1119h209V0" id="B"/><g id="b"><use transform="matrix(0.030381944444444448,0,0,0.030381944444444448,0,0)" xlink:href="#r"/><use transform="matrix(0.030381944444444448,0,0,0.030381944444444448,33.96701388888889,0)" xlink:href="#s"/><use transform="matrix(0.030381944444444448,0,0,0.030381944444444448,67.93402777777779,0)" xlink:href="#t"/><use transform="matrix(0.030381944444444448,0,0,0.030381944444444448,101.90104166666669,0)" xlink:href="#r"/><use transform="matrix(0.030381944444444448,0,0,0.030381944444444448,135.86805555555557,0)" xlink:href="#r"/><use transform="matrix(0.030381944444444448,0,0,0.030381944444444448,169.83506944444446,0)" xlink:href="#i"/><use transform="matrix(0.030381944444444448,0,0,0.030381944444444448,203.80208333333334,0)" xlink:href="#u"/><use transform="matrix(0.030381944444444448,0,0,0.030381944444444448,237.76909722222223,0)" xlink:href="#u"/><use transform="matrix(0.030381944444444448,0,0,0.030381944444444448,271.73611111111114,0)" xlink:href="#v"/><use transform="matrix(0.030381944444444448,0,0,0.030381944444444448,305.70312500000006,0)" xlink:href="#w"/><use transform="matrix(0.030381944444444448,0,0,0.030381944444444448,339.67013888888897,0)" xlink:href="#x"/><use transform="matrix(0.030381944444444448,0,0,0.030381944444444448,373.6371527777779,0)" xlink:href="#i"/><use transform="matrix(0.030381944444444448,0,0,0.030381944444444448,407.6041666666668,0)" xlink:href="#y"/><use transform="matrix(0.030381944444444448,0,0,0.030381944444444448,441.5711805555557,0)" xlink:href="#p"/><use transform="matrix(0.030381944444444448,0,0,0.030381944444444448,475.5381944444446,0)" xlink:href="#z"/><use transform="matrix(0.030381944444444448,0,0,0.030381944444444448,509.5052083333335,0)" xlink:href="#A"/><use transform="matrix(0.030381944444444448,0,0,0.030381944444444448,543.4722222222224,0)" xlink:href="#B"/></g><path fill="#1a85ff" d="M778 0H152v-186h210v-742C316-790 178-730 0-725v-207c226-12 355-139 362-373h207v1119h209V0" id="C"/><path fill="#1a85ff" d="M481-1327c250 6 424 127 424 379 0 158-89 279-184 370L313-186h383v-179h187V0H43v-195l526-503c70-75 129-137 129-250 0-129-89-193-217-193-171 0-267 106-264 285H23c-1-293 163-478 458-471" id="D"/><path fill="#d41159" d="M733-954c148 0 200 117 199 284V0H725v-639c-2-71-3-129-61-129-41 0-67 24-78 70s-17 113-17 202V0H362v-639c-2-72-4-129-63-129-41 0-69 23-77 70-32 192-9 476-15 698H0v-932h209v135c28-91 71-157 180-157 88 0 139 60 156 137 48-84 68-137 188-137" id="E"/><path d="M481-1327c250 6 424 127 424 379 0 158-89 279-184 370L313-186h383v-179h187V0H43v-195l526-503c70-75 129-137 129-250 0-129-89-193-217-193-171 0-267 106-264 285H23c-1-293 163-478 458-471" id="F"/><g id="c"><use transform="matrix(0.030381944444444448,0,0,0.030381944444444448,0,0)" xlink:href="#C"/><use transform="matrix(0.030381944444444448,0,0,0.030381944444444448,33.96701388888889,0)" xlink:href="#D"/><use transform="matrix(0.030381944444444448,0,0,0.030381944444444448,67.93402777777779,0)" xlink:href="#t"/><use transform="matrix(0.030381944444444448,0,0,0.030381944444444448,101.90104166666669,0)" xlink:href="#r"/><use transform="matrix(0.030381944444444448,0,0,0.030381944444444448,135.86805555555557,0)" xlink:href="#r"/><use transform="matrix(0.030381944444444448,0,0,0.030381944444444448,169.83506944444446,0)" xlink:href="#i"/><use transform="matrix(0.030381944444444448,0,0,0.030381944444444448,203.80208333333334,0)" xlink:href="#u"/><use transform="matrix(0.030381944444444448,0,0,0.030381944444444448,237.76909722222223,0)" xlink:href="#v"/><use transform="matrix(0.030381944444444448,0,0,0.030381944444444448,271.73611111111114,0)" xlink:href="#x"/><use transform="matrix(0.030381944444444448,0,0,0.030381944444444448,305.70312500000006,0)" xlink:href="#x"/><use transform="matrix(0.030381944444444448,0,0,0.030381944444444448,339.67013888888897,0)" xlink:href="#m"/><use transform="matrix(0.030381944444444448,0,0,0.030381944444444448,373.6371527777779,0)" xlink:href="#E"/><use transform="matrix(0.030381944444444448,0,0,0.030381944444444448,407.6041666666668,0)" xlink:href="#i"/><use transform="matrix(0.030381944444444448,0,0,0.030381944444444448,441.5711805555557,0)" xlink:href="#y"/><use transform="matrix(0.030381944444444448,0,0,0.030381944444444448,475.5381944444446,0)" xlink:href="#F"/></g><path d="M514 23C393 23 328-24 256-86v459H49V-932h207v84c72-62 136-106 258-106 210 0 327 129 386 292 43 117 43 277 0 394C840-105 725 23 514 23zm-53-791c-81 1-165 36-205 84v434c40 48 124 85 205 86 161 2 264-133 264-301S622-770 461-768" id="G"/><path d="M418-698c61-193 232-282 477-247 32 5 62 17 92 32l-78 202c-49-23-94-37-164-37-208 0-327 116-327 330v232h209V0H0v-186h211v-559H0v-187h418v234" id="H"/><path d="M922-662c46 116 46 280 0 395C852-94 704 23 467 23 232 23 83-95 14-267c-46-115-46-279 0-395 69-174 216-292 453-292 239 0 386 118 455 292zM467-164c183 0 283-118 283-301S649-768 467-768c-183 0-281 120-281 303 0 182 98 301 281 301" id="I"/><path d="M756 0c-10 253-156 395-412 395-142 0-257-53-344-159L123 98c56 65 113 109 221 111 135 3 205-81 205-209v-745H338v-187h418V0zm22-1053H526v-252h252v252" id="J"/><path d="M897-133C791-26 677 23 487 23 249 23 94-97 18-267c-51-113-50-276-2-393 71-172 216-294 453-294 253 0 396 135 465 328 25 70 37 150 37 239H190c21 132 135 223 297 223 138 0 233-48 304-115zM737-569c-20-178-291-261-444-145-51 38-83 85-94 145h538" id="K"/><path d="M487-164c138 4 233-48 304-115l106 146C792-26 679 23 492 23 174 23-20-148-20-465c0-228 113-379 274-453 55-24 113-36 174-36 133 0 231 59 270 157v-135h185v434H698c4-154-95-277-243-270-169 8-269 121-269 303 0 194 113 296 301 301" id="L"/><path d="M592 0H340v-252h252V0" id="M"/><path d="M932-932L588 0H344L0-932h221l246 705 244-705h221" id="N"/><g id="d"><use transform="matrix(0.030381944444444448,0,0,0.030381944444444448,0,0)" xlink:href="#G"/><use transform="matrix(0.030381944444444448,0,0,0.030381944444444448,33.96701388888889,0)" xlink:href="#H"/><use transform="matrix(0.030381944444444448,0,0,0.030381944444444448,67.93402777777779,0)" xlink:href="#I"/><use transform="matrix(0.030381944444444448,0,0,0.030381944444444448,101.90104166666669,0)" xlink:href="#J"/><use transform="matrix(0.030381944444444448,0,0,0.030381944444444448,135.86805555555557,0)" xlink:href="#K"/><use transform="matrix(0.030381944444444448,0,0,0.030381944444444448,169.83506944444446,0)" xlink:href="#L"/><use transform="matrix(0.030381944444444448,0,0,0.030381944444444448,203.80208333333334,0)" xlink:href="#q"/><use transform="matrix(0.030381944444444448,0,0,0.030381944444444448,237.76909722222223,0)" xlink:href="#M"/><use transform="matrix(0.030381944444444448,0,0,0.030381944444444448,271.73611111111114,0)" xlink:href="#L"/><use transform="matrix(0.030381944444444448,0,0,0.030381944444444448,305.70312500000006,0)" xlink:href="#z"/><use transform="matrix(0.030381944444444448,0,0,0.030381944444444448,339.67013888888897,0)" xlink:href="#N"/></g></defs></g></svg>